<svg id="wave" style="transform:rotate(180deg); transition: 0.3s" viewBox="0 0 1440 490" version="1.1" xmlns="http://www.w3.org/2000/svg"><defs><linearGradient id="sw-gradient-0" x1="0" x2="0" y1="1" y2="0"><stop stop-color="rgba(71.406, 31.29, 18.406, 1)" offset="0%"></stop><stop stop-color="rgba(255, 179, 11, 1)" offset="100%"></stop></linearGradient></defs><path style="transform:translate(0, 0px); opacity:1" fill="url(#sw-gradient-0)" d="M0,343L26.7,294C53.3,245,107,147,160,147C213.3,147,267,245,320,285.8C373.3,327,427,310,480,326.7C533.3,343,587,392,640,408.3C693.3,425,747,408,800,351.2C853.3,294,907,196,960,196C1013.3,196,1067,294,1120,326.7C1173.3,359,1227,327,1280,269.5C1333.3,212,1387,131,1440,81.7C1493.3,33,1547,16,1600,57.2C1653.3,98,1707,196,1760,228.7C1813.3,261,1867,229,1920,236.8C1973.3,245,2027,294,2080,310.3C2133.3,327,2187,310,2240,294C2293.3,278,2347,261,2400,212.3C2453.3,163,2507,82,2560,73.5C2613.3,65,2667,131,2720,171.5C2773.3,212,2827,229,2880,236.8C2933.3,245,2987,245,3040,204.2C3093.3,163,3147,82,3200,81.7C3253.3,82,3307,163,3360,179.7C3413.3,196,3467,147,3520,138.8C3573.3,131,3627,163,3680,196C3733.3,229,3787,261,3813,277.7L3840,294L3840,490L3813.3,490C3786.7,490,3733,490,3680,490C3626.7,490,3573,490,3520,490C3466.7,490,3413,490,3360,490C3306.7,490,3253,490,3200,490C3146.7,490,3093,490,3040,490C2986.7,490,2933,490,2880,490C2826.7,490,2773,490,2720,490C2666.7,490,2613,490,2560,490C2506.7,490,2453,490,2400,490C2346.7,490,2293,490,2240,490C2186.7,490,2133,490,2080,490C2026.7,490,1973,490,1920,490C1866.7,490,1813,490,1760,490C1706.7,490,1653,490,1600,490C1546.7,490,1493,490,1440,490C1386.7,490,1333,490,1280,490C1226.7,490,1173,490,1120,490C1066.7,490,1013,490,960,490C906.7,490,853,490,800,490C746.7,490,693,490,640,490C586.7,490,533,490,480,490C426.7,490,373,490,320,490C266.7,490,213,490,160,490C106.7,490,53,490,27,490L0,490Z"></path><defs><linearGradient id="sw-gradient-1" x1="0" x2="0" y1="1" y2="0"><stop stop-color="rgba(243, 106, 62, 1)" offset="0%"></stop><stop stop-color="rgba(94.174, 83.664, 60.434, 1)" offset="100%"></stop></linearGradient></defs><path style="transform:translate(0, 50px); opacity:0.9" fill="url(#sw-gradient-1)" d="M0,196L26.7,204.2C53.3,212,107,229,160,253.2C213.3,278,267,310,320,277.7C373.3,245,427,147,480,130.7C533.3,114,587,180,640,204.2C693.3,229,747,212,800,212.3C853.3,212,907,229,960,220.5C1013.3,212,1067,180,1120,196C1173.3,212,1227,278,1280,253.2C1333.3,229,1387,114,1440,98C1493.3,82,1547,163,1600,236.8C1653.3,310,1707,376,1760,400.2C1813.3,425,1867,408,1920,343C1973.3,278,2027,163,2080,171.5C2133.3,180,2187,310,2240,359.3C2293.3,408,2347,376,2400,326.7C2453.3,278,2507,212,2560,196C2613.3,180,2667,212,2720,236.8C2773.3,261,2827,278,2880,261.3C2933.3,245,2987,196,3040,155.2C3093.3,114,3147,82,3200,98C3253.3,114,3307,180,3360,196C3413.3,212,3467,180,3520,163.3C3573.3,147,3627,147,3680,130.7C3733.3,114,3787,82,3813,65.3L3840,49L3840,490L3813.3,490C3786.7,490,3733,490,3680,490C3626.7,490,3573,490,3520,490C3466.7,490,3413,490,3360,490C3306.7,490,3253,490,3200,490C3146.7,490,3093,490,3040,490C2986.7,490,2933,490,2880,490C2826.7,490,2773,490,2720,490C2666.7,490,2613,490,2560,490C2506.7,490,2453,490,2400,490C2346.7,490,2293,490,2240,490C2186.7,490,2133,490,2080,490C2026.7,490,1973,490,1920,490C1866.7,490,1813,490,1760,490C1706.7,490,1653,490,1600,490C1546.7,490,1493,490,1440,490C1386.7,490,1333,490,1280,490C1226.7,490,1173,490,1120,490C1066.7,490,1013,490,960,490C906.7,490,853,490,800,490C746.7,490,693,490,640,490C586.7,490,533,490,480,490C426.7,490,373,490,320,490C266.7,490,213,490,160,490C106.7,490,53,490,27,490L0,490Z"></path><defs><linearGradient id="sw-gradient-2" x1="0" x2="0" y1="1" y2="0"><stop stop-color="rgba(243, 106, 62, 1)" offset="0%"></stop><stop stop-color="rgba(65.431, 89.738, 173.861, 1)" offset="100%"></stop></linearGradient></defs><path style="transform:translate(0, 100px); opacity:0.8" fill="url(#sw-gradient-2)" d="M0,343L26.7,359.3C53.3,376,107,408,160,424.7C213.3,441,267,441,320,375.7C373.3,310,427,180,480,171.5C533.3,163,587,278,640,310.3C693.3,343,747,294,800,269.5C853.3,245,907,245,960,269.5C1013.3,294,1067,343,1120,334.8C1173.3,327,1227,261,1280,236.8C1333.3,212,1387,229,1440,269.5C1493.3,310,1547,376,1600,375.7C1653.3,376,1707,310,1760,302.2C1813.3,294,1867,343,1920,334.8C1973.3,327,2027,261,2080,261.3C2133.3,261,2187,327,2240,359.3C2293.3,392,2347,392,2400,351.2C2453.3,310,2507,229,2560,236.8C2613.3,245,2667,343,2720,392C2773.3,441,2827,441,2880,416.5C2933.3,392,2987,343,3040,302.2C3093.3,261,3147,229,3200,245C3253.3,261,3307,327,3360,294C3413.3,261,3467,131,3520,65.3C3573.3,0,3627,0,3680,24.5C3733.3,49,3787,98,3813,122.5L3840,147L3840,490L3813.3,490C3786.7,490,3733,490,3680,490C3626.7,490,3573,490,3520,490C3466.7,490,3413,490,3360,490C3306.7,490,3253,490,3200,490C3146.7,490,3093,490,3040,490C2986.7,490,2933,490,2880,490C2826.7,490,2773,490,2720,490C2666.7,490,2613,490,2560,490C2506.7,490,2453,490,2400,490C2346.7,490,2293,490,2240,490C2186.7,490,2133,490,2080,490C2026.7,490,1973,490,1920,490C1866.7,490,1813,490,1760,490C1706.7,490,1653,490,1600,490C1546.7,490,1493,490,1440,490C1386.7,490,1333,490,1280,490C1226.7,490,1173,490,1120,490C1066.7,490,1013,490,960,490C906.7,490,853,490,800,490C746.7,490,693,490,640,490C586.7,490,533,490,480,490C426.7,490,373,490,320,490C266.7,490,213,490,160,490C106.7,490,53,490,27,490L0,490Z"></path></svg>